<svg width="1200" height="800" viewBox="0 0 1200 800" fill="none" xmlns="http://www.w3.org/2000/svg">
  <defs>
    <linearGradient id="bgGrad4" x1="40" y1="40" x2="1160" y2="760" gradientUnits="userSpaceOnUse">
      <stop stop-color="#3A141C" stop-opacity="0.35"/>
      <stop offset="0.55" stop-color="#1B2028" stop-opacity="0.22"/>
      <stop offset="1" stop-color="#0F141B" stop-opacity="0.30"/>
    </linearGradient>

    <radialGradient id="softVignette4" cx="0" cy="0" r="1" gradientUnits="userSpaceOnUse"
      gradientTransform="translate(520 320) rotate(60) scale(900 700)">
      <stop stop-color="#FFFFFF" stop-opacity="0.06"/>
      <stop offset="1" stop-color="#000000" stop-opacity="0.18"/>
    </radialGradient>

    <filter id="glowRed4" x="-40%" y="-40%" width="180%" height="180%">
      <feGaussianBlur stdDeviation="6" result="b"/>
      <feMerge>
        <feMergeNode in="b"/>
        <feMergeNode in="SourceGraphic"/>
      </feMerge>
    </filter>

    <clipPath id="frameClip4">
      <rect x="40" y="40" width="1120" height="720" rx="18"/>
    </clipPath>

    <style>
      .sans { font-family: ui-sans-serif, system-ui, -apple-system, Segoe UI, Roboto, Inter, Arial, "Noto Sans", sans-serif; }
      .mono { font-family: ui-monospace, SFMono-Regular, Menlo, Monaco, Consolas, "Liberation Mono", monospace; }
    </style>
  </defs>
  <g clip-path="url(#frameClip4)">
    <rect x="40" y="40" width="1120" height="720" rx="18" fill="url(#bgGrad4)"/>
    <rect x="40" y="40" width="1120" height="720" rx="18" fill="url(#softVignette4)"/>
    <rect x="40" y="40" width="1120" height="720" rx="18" stroke="#FFFFFF" stroke-opacity="0.18" stroke-width="1.2"/>

    <g transform="translate(90 70)">
      <!-- Top panel -->
      <text class="sans" x="0" y="30" font-size="11" font-weight="700" letter-spacing="1.8" fill="#FFFFFF" fill-opacity="0.62">COORDINATION DECENTRALISEE</text>
      <rect x="0" y="60" width="1060" height="300" rx="16" fill="#FFFFFF" fill-opacity="0.04" stroke="#FFFFFF" stroke-opacity="0.12"/>

      <!-- network links -->
      <g transform="translate(120 120)" stroke="#FFFFFF" stroke-opacity="0.18" stroke-width="2" fill="none">
        <path d="M0 120 L220 30 L420 80 L640 10 L820 80 L940 160" stroke-linecap="round"/>
        <path d="M220 30 L420 180 L820 80" stroke-linecap="round"/>
        <path d="M0 120 L420 180 L940 160" stroke-linecap="round"/>
      </g>

      <!-- nodes -->
      <g transform="translate(90 120)">
        <circle cx="30" cy="120" r="14" stroke="#FFFFFF" stroke-opacity="0.22"/>
        <circle cx="250" cy="30" r="14" stroke="#FF2A2A" stroke-opacity="0.55"/>
        <circle cx="450" cy="80" r="12" stroke="#FFFFFF" stroke-opacity="0.18"/>
        <circle cx="670" cy="10" r="12" stroke="#FFFFFF" stroke-opacity="0.18"/>
        <circle cx="850" cy="80" r="14" stroke="#FF2A2A" stroke-opacity="0.55"/>
        <circle cx="970" cy="160" r="12" stroke="#FFFFFF" stroke-opacity="0.18"/>
        <g filter="url(#glowRed4)">
          <circle cx="450" cy="180" r="14" fill="#FF2A2A" fill-opacity="0.10" stroke="#FF2A2A" stroke-width="2.2"/>
        </g>
      </g>

      <!-- caption pill -->
      <rect x="24" y="290" width="520" height="42" rx="12" fill="#000000" fill-opacity="0.32"/>
      <text class="sans" x="40" y="316" font-size="12" fill="#FFFFFF" fill-opacity="0.72">Aucun noeud "chef" unique - resilience via des liens distribues.</text>

      <!-- Bottom panels -->
      <text class="sans" x="0" y="408" font-size="11" font-weight="700" letter-spacing="1.8" fill="#FFFFFF" fill-opacity="0.62">ANONYMAT &amp; SECURITE</text>
      <text class="sans" x="560" y="408" font-size="11" font-weight="700" letter-spacing="1.8" fill="#FFFFFF" fill-opacity="0.62">INSPIRATION MONDIALE</text>

      <rect x="0" y="430" width="520" height="190" rx="16" fill="#FFFFFF" fill-opacity="0.04" stroke="#FFFFFF" stroke-opacity="0.12"/>
      <rect x="540" y="430" width="520" height="190" rx="16" fill="#FFFFFF" fill-opacity="0.04" stroke="#FFFFFF" stroke-opacity="0.12"/>

      <!-- Anonymity panel content -->
      <g transform="translate(36 458)">
        <!-- subtle backdrop circles -->
        <g stroke="#FFFFFF" stroke-opacity="0.10" stroke-width="2" fill="none">
          <circle cx="56" cy="42" r="22"/><circle cx="138" cy="42" r="22"/><circle cx="220" cy="42" r="22"/>
        </g>

        <!-- silhouettes -->
        <g stroke="#FFFFFF" stroke-opacity="0.18" stroke-width="2" fill="none">
          <path d="M36 108c4-20 36-20 40 0" stroke-linecap="round"/>
          <path d="M118 108c4-20 36-20 40 0" stroke-linecap="round"/>
          <path d="M200 108c4-20 36-20 40 0" stroke-linecap="round"/>
        </g>

        <!-- mask strokes -->
        <g filter="url(#glowRed4)" transform="translate(26 50)">
          <path d="M8 0c10 10 30 10 40 0" stroke="#FF2A2A" stroke-width="3" stroke-linecap="round"/>
          <path d="M90 0c10 10 30 10 40 0" stroke="#FF2A2A" stroke-width="3" stroke-linecap="round" stroke-opacity="0.85"/>
          <path d="M172 0c10 10 30 10 40 0" stroke="#FF2A2A" stroke-width="3" stroke-linecap="round" stroke-opacity="0.70"/>
        </g>

        <!-- lock icon -->
        <g transform="translate(360 30)">
          <rect x="0" y="26" width="90" height="70" rx="14" fill="#FFFFFF" fill-opacity="0.03" stroke="#FFFFFF" stroke-opacity="0.12"/>
          <path d="M26 26v-10c0-12 10-22 22-22s22 10 22 22v10" stroke="#FFFFFF" stroke-opacity="0.18" stroke-width="2.2" stroke-linecap="round"/>
          <g filter="url(#glowRed4)" transform="translate(44 52)">
            <path d="M0 0v18" stroke="#FF2A2A" stroke-width="3.2" stroke-linecap="round"/>
            <circle cx="0" cy="24" r="4.2" fill="#FF2A2A" fill-opacity="0.20" stroke="#FF2A2A" stroke-width="2"/>
          </g>
        </g>
      </g>

      <rect x="24" y="574" width="472" height="36" rx="12" fill="#000000" fill-opacity="0.32"/>
      <text class="sans" x="40" y="597" font-size="12" fill="#FFFFFF" fill-opacity="0.72">Coordinateurs anonymes - sans identite publique - operations conscientes du risque</text>

      <!-- Global inspiration panel content -->
      <g transform="translate(576 458)">
        <!-- simple world arcs -->
        <g stroke="#FFFFFF" stroke-opacity="0.14" stroke-width="2" fill="none">
          <path d="M20 92 C140 18, 260 18, 380 92 C260 166, 140 166, 20 92Z"/>
          <path d="M60 92 C160 42, 240 42, 340 92 C240 142, 160 142, 60 92Z" stroke-opacity="0.10"/>
          <path d="M200 28v128" stroke-opacity="0.08"/>
          <path d="M110 52h180" stroke-opacity="0.08"/>
        </g>

        <!-- pins laid out cleanly -->
        <g transform="translate(90 44)">
          <g filter="url(#glowRed4)">
            <path d="M0 16c0-10 8-18 18-18s18 8 18 18c0 14-18 34-18 34S0 30 0 16Z" fill="#FF2A2A" fill-opacity="0.10" stroke="#FF2A2A" stroke-width="2.2"/>
            <circle cx="18" cy="16" r="6" fill="#FF2A2A"/>
          </g>
          <rect x="44" y="4" width="96" height="28" rx="10" fill="#000000" fill-opacity="0.32"/>
          <text class="sans" x="58" y="24" font-size="12" font-weight="700" fill="#FFFFFF" fill-opacity="0.80">Nepal</text>
        </g>

        <g transform="translate(238 86)">
          <g filter="url(#glowRed4)">
            <path d="M0 16c0-10 8-18 18-18s18 8 18 18c0 14-18 34-18 34S0 30 0 16Z" fill="#FF2A2A" fill-opacity="0.10" stroke="#FF2A2A" stroke-width="2.2"/>
            <circle cx="18" cy="16" r="6" fill="#FF2A2A"/>
          </g>
          <rect x="44" y="4" width="122" height="28" rx="10" fill="#000000" fill-opacity="0.32"/>
          <text class="sans" x="58" y="24" font-size="12" font-weight="700" fill="#FFFFFF" fill-opacity="0.80">Madagascar</text>
        </g>

        <g transform="translate(402 52)">
          <g filter="url(#glowRed4)">
            <path d="M0 16c0-10 8-18 18-18s18 8 18 18c0 14-18 34-18 34S0 30 0 16Z" fill="#FF2A2A" fill-opacity="0.10" stroke="#FF2A2A" stroke-width="2.2"/>
            <circle cx="18" cy="16" r="6" fill="#FF2A2A"/>
          </g>
          <rect x="-110" y="4" width="96" height="28" rx="10" fill="#000000" fill-opacity="0.32"/>
          <text class="sans" x="-96" y="24" font-size="12" font-weight="700" fill="#FFFFFF" fill-opacity="0.80">Perou</text>
        </g>
      </g>

      <rect x="564" y="574" width="472" height="36" rx="12" fill="#000000" fill-opacity="0.32"/>
      <text class="sans" x="580" y="597" font-size="12" fill="#FFFFFF" fill-opacity="0.72">Schemas partages : reseaux de jeunesse + coordination rapide.</text>
    </g>

    <text class="mono" x="1116" y="732" font-size="12" fill="#FFFFFF" fill-opacity="0.50">FIG.04</text>
  </g>
</svg>